<?xml version="1.0" encoding="utf-8"?>
<!-- Generator: Adobe Illustrator 25.4.1, SVG Export Plug-In . SVG Version: 6.00 Build 0)  -->
<svg version="1.1" xmlns="http://www.w3.org/2000/svg" xmlns:xlink="http://www.w3.org/1999/xlink" x="0px" y="0px"
	 viewBox="0 0 1024 1024" enable-background="new 0 0 1024 1024" xml:space="preserve">
<g id="Layer_1">
	<g display="none">
		<rect x="-119.665" y="228.616" display="inline" fill="#01BAEF" width="112.026" height="233.218"/>
	</g>
	<g display="none">
		<rect x="-119.665" y="344.715" display="inline" fill="#C3FF0E" width="112.026" height="233.218"/>
	</g>
	
		<image display="none" overflow="visible" width="435" height="360" xlink:href="C:\Users\darkt\Downloads\360_F_287897805_VclGy0qmOFg4WyBX96uX0WpXUYFWmdc7.jpg"  transform="matrix(2.8861 0 0 2.8861 -106.1968 -7)">
	</image>
	<path fill="#01BAEF" d="M282.082,218.788c33.976-37.478,73.285-50.959,89.667-55.594C439.896,111.187,508.043,59.18,576.19,7.173
		C462.612,109.394,349.033,211.615,235.455,313.835C238.43,297.082,247.955,256.432,282.082,218.788z"/>
	<path fill="#C3FF0E" d="M382.509,349.702c-1.518-40.711,54.986-67.931,86.081-75.32c16.682-3.964,32.547-3.764,46.627-3.587
		c27.761,0.35,50.598,4.855,66.354,8.967c-14.347,19.727-28.693,39.454-43.04,59.18c106.405-96.243,212.81-192.486,319.215-288.729
		c-61.572,39.454-123.143,78.907-184.715,118.361c-18.833-12.256-56.724-33.364-109.394-39.454
		c-51.196-5.919-91.885,5.182-112.981,12.553C353.815,244.493,256.975,347.311,160.134,450.13c-3.587,5.38-7.173,10.76-10.76,16.14
		c43.04-34.074,86.081-68.147,129.121-102.221c-14.347,18.531-28.694,37.062-43.04,55.594c10.76,19.129,21.52,38.258,32.28,57.387
		c6.451,6.145,13.048,12.715,19.727,19.727c6.371,6.689,12.343,13.283,17.933,19.727c-4.185,16.14-8.369,32.28-12.553,48.42
		c52.605-49.616,105.21-99.232,157.814-148.848C411.62,405.014,383.55,377.62,382.509,349.702z"/>
	<path fill="#C3FF0E" d="M895.406,125.534c-64.56,71.734-129.121,143.468-193.681,215.201c32.878-4.782,65.756-9.565,98.634-14.347
		c0.289-5.468,0.086-14.615-3.587-25.107c-3.594-10.265-8.974-17.433-12.553-21.52C821.281,228.353,858.343,176.943,895.406,125.534
		z"/>
	<path fill="#C3FF0E" d="M203.174,670.711c37.66-2.391,75.32-4.782,112.981-7.173c-71.734,73.527-143.468,147.054-215.201,220.581
		c36.465-50.811,72.929-101.623,109.394-152.434c-2.781-7.344-5.676-17.05-7.173-28.693
		C201.517,690.104,202.109,679.006,203.174,670.711z"/>
	<path fill="#01BAEF" d="M961.759,0C758.514,179.335,555.268,358.669,352.022,538.003c49.018-10.76,98.036-21.52,147.054-32.28
		C352.022,662.94,204.968,820.156,57.913,977.373c239.113-206.235,478.225-412.469,717.338-618.704
		c-49.616,9.565-99.232,19.129-148.848,28.694C738.189,258.242,849.974,129.121,961.759,0z"/>
	<path display="none" fill="#00FF00" d="M831,147.063C694.936,267.12,558.871,387.177,422.807,507.234
		c32.816-7.203,65.631-14.407,98.447-21.61c-98.447,105.25-196.893,210.5-295.34,315.75
		c160.076-138.065,320.152-276.131,480.227-414.196c-33.216,6.403-66.431,12.806-99.647,19.209
		C681.329,319.945,756.165,233.504,831,147.063z"/>
	<path fill="#C3FF0E" d="M504.456,633.051c68.745-60.974,137.49-121.947,206.235-182.921c-7.771,12.553-15.542,25.107-23.313,37.66
		c17.802,5.901,46.225,17.976,73.527,43.04c42.862,39.348,56.513,86.429,60.974,105.807c-8.369,10.162-16.738,20.325-25.107,30.487
		c43.638-30.487,87.276-60.974,130.914-91.461C792.587,697.013,657.488,818.363,522.39,939.713
		c-47.092,1.909-115.011-3.212-182.921-39.454c-11.677-6.232-22.42-12.885-32.28-19.727c11.956-16.738,23.911-33.476,35.867-50.214
		c-72.332,43.638-144.663,87.276-216.995,130.914C324.269,780.247,425.886,692.38,430.929,697.611
		c2.039,2.115-11.711,19.452-41.247,52.007c8.63,10.883,24.219,27.536,48.42,39.454c32.387,15.949,61.738,14.327,87.874,12.553
		c41.974-2.849,100.711-6.836,129.121-50.214c2.854-4.358,21.928-34.462,12.553-68.147c-9.942-35.721-45.343-51.995-60.974-59.18
		c-22.272-10.238-42.76-12.302-55.594-12.553C535.541,618.704,519.999,625.877,504.456,633.051z"/>
	<path fill="#01BAEF" d="M825.465,686.851C714.875,799.234,604.286,911.617,493.696,1024
		c60.376-49.018,120.752-98.036,181.128-147.054c-13.151,17.336-26.302,34.671-39.454,52.007
		c13.095-2.654,131.28-28.581,175.748-134.501C829.23,751.31,828.308,711.105,825.465,686.851z"/>
</g>
<g id="Layer_2">
	<path fill-rule="evenodd" clip-rule="evenodd" fill="#01BAEF" d="M737.342,845.224c0,0-37.563,53.481,55.056,99.437
		c0,0-19.851-16.778-9.269-26.066c19.742-17.328,32.776,54.082,81.267,40.616c16.851-4.679,34.71,3.299,43.09,14.432
		c0,0-13.98-30.425-47.313-38.215c0,0-10.73-5.158,2.716-9.808c13.445-4.65,79.582,13.223,79.362,44.818
		c10.64-41.594-29.643-103.877-94.493-104.927c-8.009-0.13-21.914-0.801-15.353-12.617c6.561-11.816,42.536-5.159,54.617,13.572
		c0,0-2.363-34.384-35.512-58.698c-33.149-24.314-71.59-9.404-80.324-0.394C759.904,819.99,748.623,832.607,737.342,845.224z"/>
	<path fill-rule="evenodd" clip-rule="evenodd" fill="#01BAEF" d="M295.202,257.894c0,0-62.654,43.681-115.983-64.746
		c0,0,19.527,23.267,30.424,10.939c20.331-23.001-63.07-38.524-47.136-95.139c5.537-19.674-3.715-40.577-16.691-50.416
		c0,0,35.499,16.461,44.468,55.449c0,0,5.985,12.56,11.474-3.134c5.489-15.694-15.13-93.058-52.054-92.929
		c48.652-12.265,121.276,35.065,122.24,110.857c0.119,9.36,0.847,25.614,14.682,17.994c13.835-7.619,6.202-49.689-15.639-63.883
		c0,0,40.173,2.901,68.453,41.74c28.28,38.839,10.699,83.702,0.134,93.872C324.784,231.629,309.993,244.762,295.202,257.894z"/>
	<path display="none" fill-rule="evenodd" clip-rule="evenodd" fill="#D40303" d="M1194.641,572.798
		c0,0-86.53-11.693-47.552-144.218c0,0-1.56,34.691,17.149,32.742c34.906-3.636-23.293-81.215,33.913-116.548
		c19.879-12.278,28.26-37.031,24.947-55.351c0,0,17.15,41.316-5.457,81.073c0,0-4.678,15.202,12.083,6.237
		c16.761-8.965,59.246-90.039,28.063-118.493c50.443,27.308,74.967,123.327,17.151,187.874c-7.14,7.972-19.099,22.217-1.559,26.505
		c17.54,4.288,43.656-37.03,36.25-65.874c0,0,31.574,33.517,25.337,88.086c-6.237,54.569-55.739,78.736-72.499,79.125
		c0,0,43.657-34.691,37.81-81.075c0,0-16.371,35.47-47.553,17.93c-31.182-17.54-22.218-88.091,8.965-117.714
		c-39.268,28.324-73.82,101.393-21.048,143.828c0,0-57.297,4.288-63.923-28.843C1176.718,508.083,1169.313,541.994,1194.641,572.798
		L1194.641,572.798z"/>
</g>
</svg>
