<?xml version="1.0" encoding="utf-8"?>
<!-- Generator: Adobe Illustrator 25.4.1, SVG Export Plug-In . SVG Version: 6.00 Build 0)  -->
<svg version="1.1" id="Layer_1" xmlns="http://www.w3.org/2000/svg" xmlns:xlink="http://www.w3.org/1999/xlink" x="0px" y="0px"
	 viewBox="0 0 5273.429 1024" style="enable-background:new 0 0 5273.429 1024;" xml:space="preserve">
<style type="text/css">
	.st0{display:none;}
	.st1{display:inline;fill:#01BAEF;}
	.st2{display:inline;fill:#C3FF0E;}
	.st3{fill:#01BAEF;}
	.st4{fill:#C3FF0E;}
	.st5{display:none;fill:#00FF00;}
	.st6{fill-rule:evenodd;clip-rule:evenodd;fill:#01BAEF;}
	.st7{display:none;fill-rule:evenodd;clip-rule:evenodd;fill:#D40303;}
	.st8{fill:#CDCDCD;}
</style>
<g id="Layer_1_00000070824441789231911210000005511250373420803991_">
	<g class="st0">
		<rect x="-119.665" y="228.616" class="st1" width="112.026" height="233.218"/>
	</g>
	<g class="st0">
		<rect x="-119.665" y="344.715" class="st2" width="112.026" height="233.218"/>
	</g>
	
		<image style="display:none;overflow:visible;enable-background:new    ;" width="435" height="360" xlink:href="C:\Users\darkt\Downloads\360_F_287897805_VclGy0qmOFg4WyBX96uX0WpXUYFWmdc7.jpg"  transform="matrix(2.8861 0 0 2.8861 -106.1968 -7)">
	</image>
	<path class="st3" d="M282.082,218.788c33.976-37.478,73.285-50.959,89.667-55.594C439.896,111.187,508.043,59.18,576.19,7.173
		C462.612,109.394,349.033,211.615,235.455,313.835C238.43,297.082,247.955,256.432,282.082,218.788z"/>
	<path class="st4" d="M382.509,349.702c-1.518-40.711,54.986-67.931,86.081-75.32c16.682-3.964,32.547-3.764,46.627-3.587
		c27.761,0.35,50.598,4.855,66.354,8.967c-14.347,19.727-28.693,39.454-43.04,59.18c106.405-96.243,212.81-192.486,319.215-288.729
		c-61.572,39.454-123.143,78.907-184.715,118.361c-18.833-12.256-56.724-33.364-109.394-39.454
		c-51.196-5.919-91.885,5.182-112.981,12.553c-96.841,102.82-193.681,205.638-290.522,308.457c-3.587,5.38-7.173,10.76-10.76,16.14
		c43.04-34.074,86.081-68.147,129.121-102.221c-14.347,18.531-28.694,37.062-43.04,55.594c10.76,19.129,21.52,38.258,32.28,57.387
		c6.451,6.145,13.048,12.715,19.727,19.727c6.371,6.689,12.343,13.283,17.933,19.727c-4.185,16.14-8.369,32.28-12.553,48.42
		c52.605-49.616,105.21-99.232,157.814-148.848C411.62,405.014,383.55,377.62,382.509,349.702z"/>
	<path class="st4" d="M895.406,125.534c-64.56,71.734-129.121,143.468-193.681,215.201c32.878-4.782,65.756-9.565,98.634-14.347
		c0.289-5.468,0.086-14.615-3.587-25.107c-3.594-10.265-8.974-17.433-12.553-21.52C821.281,228.353,858.343,176.943,895.406,125.534
		z"/>
	<path class="st4" d="M203.174,670.711c37.66-2.391,75.32-4.782,112.981-7.173c-71.734,73.527-143.468,147.054-215.201,220.581
		c36.465-50.811,72.929-101.623,109.394-152.434c-2.781-7.344-5.676-17.05-7.173-28.693
		C201.517,690.104,202.109,679.006,203.174,670.711z"/>
	<path class="st3" d="M961.759,0C758.514,179.335,555.268,358.669,352.022,538.003c49.018-10.76,98.036-21.52,147.054-32.28
		C352.022,662.94,204.968,820.156,57.913,977.373c239.113-206.235,478.225-412.469,717.338-618.704
		c-49.616,9.565-99.232,19.129-148.848,28.694C738.189,258.242,849.974,129.121,961.759,0z"/>
	<path class="st5" d="M831,147.063C694.936,267.12,558.871,387.177,422.807,507.234c32.816-7.203,65.631-14.407,98.447-21.61
		c-98.447,105.25-196.893,210.5-295.34,315.75C385.99,663.309,546.066,525.243,706.141,387.178
		c-33.216,6.403-66.431,12.806-99.647,19.209C681.329,319.945,756.165,233.504,831,147.063z"/>
	<path class="st4" d="M504.456,633.051c68.745-60.974,137.49-121.947,206.235-182.921c-7.771,12.553-15.542,25.107-23.313,37.66
		c17.802,5.901,46.225,17.976,73.527,43.04c42.862,39.348,56.513,86.429,60.974,105.807c-8.369,10.162-16.738,20.325-25.107,30.487
		c43.638-30.487,87.276-60.974,130.914-91.461c-135.099,121.35-270.198,242.7-405.296,364.05
		c-47.092,1.909-115.011-3.212-182.921-39.454c-11.677-6.232-22.42-12.885-32.28-19.727c11.956-16.738,23.911-33.476,35.867-50.214
		c-72.332,43.638-144.663,87.276-216.995,130.914C324.269,780.247,425.886,692.38,430.929,697.611
		c2.039,2.115-11.711,19.452-41.247,52.007c8.63,10.883,24.219,27.536,48.42,39.454c32.387,15.949,61.738,14.327,87.874,12.553
		c41.974-2.849,100.711-6.836,129.121-50.214c2.854-4.358,21.928-34.462,12.553-68.147c-9.942-35.721-45.343-51.995-60.974-59.18
		c-22.272-10.238-42.76-12.302-55.594-12.553C535.541,618.704,519.999,625.877,504.456,633.051z"/>
	<path class="st3" d="M825.465,686.851C714.875,799.234,604.286,911.617,493.696,1024c60.376-49.018,120.752-98.036,181.128-147.054
		c-13.151,17.336-26.302,34.671-39.454,52.007c13.095-2.654,131.28-28.581,175.748-134.501
		C829.23,751.31,828.308,711.105,825.465,686.851z"/>
</g>
<g id="Layer_2_00000121996194264624420070000004642471648752272794_">
	<path class="st6" d="M737.342,845.224c0,0-37.563,53.481,55.056,99.437c0,0-19.851-16.778-9.269-26.066
		c19.742-17.328,32.776,54.082,81.267,40.616c16.851-4.679,34.71,3.299,43.09,14.432c0,0-13.98-30.425-47.313-38.215
		c0,0-10.73-5.158,2.716-9.808c13.445-4.65,79.582,13.223,79.362,44.818c10.64-41.594-29.643-103.877-94.493-104.927
		c-8.009-0.13-21.914-0.801-15.353-12.617s42.536-5.159,54.617,13.572c0,0-2.363-34.384-35.512-58.698
		c-33.149-24.314-71.59-9.404-80.324-0.394C759.904,819.99,748.623,832.607,737.342,845.224z"/>
	<path class="st6" d="M295.202,257.894c0,0-62.654,43.681-115.983-64.746c0,0,19.527,23.267,30.424,10.939
		c20.331-23.001-63.07-38.524-47.136-95.139c5.537-19.674-3.715-40.577-16.691-50.416c0,0,35.499,16.461,44.468,55.449
		c0,0,5.985,12.56,11.474-3.134s-15.13-93.058-52.054-92.929c48.652-12.265,121.276,35.065,122.24,110.857
		c0.119,9.36,0.847,25.614,14.682,17.994c13.835-7.619,6.202-49.689-15.639-63.883c0,0,40.173,2.901,68.453,41.74
		s10.699,83.702,0.134,93.872C324.784,231.629,309.993,244.762,295.202,257.894z"/>
	<path class="st7" d="M1194.641,572.798c0,0-86.53-11.693-47.552-144.218c0,0-1.56,34.691,17.149,32.742
		c34.906-3.636-23.293-81.215,33.913-116.548c19.879-12.278,28.26-37.031,24.947-55.351c0,0,17.15,41.316-5.457,81.073
		c0,0-4.678,15.202,12.083,6.237s59.246-90.039,28.063-118.493c50.443,27.308,74.967,123.327,17.151,187.874
		c-7.14,7.972-19.099,22.217-1.559,26.505s43.656-37.03,36.25-65.874c0,0,31.574,33.517,25.337,88.086
		c-6.237,54.569-55.739,78.736-72.499,79.125c0,0,43.657-34.691,37.81-81.075c0,0-16.371,35.47-47.553,17.93
		c-31.182-17.54-22.218-88.091,8.965-117.714c-39.268,28.324-73.82,101.393-21.048,143.828c0,0-57.297,4.288-63.923-28.843
		C1176.718,508.083,1169.313,541.994,1194.641,572.798L1194.641,572.798z"/>
</g>
<g>
	<path class="st8" d="M1394.347,283.451v115.435h-109.43v351.642h-120.105V398.886h-108.095V283.451H1394.347z"/>
	<path class="st8" d="M3729.058,282.784h-0.667c20.685,0,40.035,2.669,57.384,8.674c17.349,6.005,32.695,14.68,45.373,26.023
		s22.687,24.688,30.026,40.035s10.676,32.028,10.676,50.711c0,14.012-2.002,26.022-6.005,36.699
		c-4.004,10.676-9.342,19.35-15.347,26.022c-6.006,6.673-12.678,12.011-19.351,16.014s-12.678,6.673-17.349,8.007v1.334
		c10.676,2.001,20.685,6.005,30.026,12.01s18.016,14.012,25.355,23.354s13.345,20.685,18.016,33.362s6.673,26.69,6.673,42.037
		c0,43.371-13.345,78.068-40.702,104.091c-27.357,26.023-68.728,38.701-124.109,38.701h-164.811V282.784H3729.058z
		 M3721.051,461.607l-0.667-0.667c11.343,0,20.685-3.336,27.357-10.008c6.672-6.673,10.009-16.014,10.009-28.025
		c0-11.343-3.337-20.685-10.009-27.357c-6.673-6.672-15.347-10.009-26.023-10.009h-36.698v76.067H3721.051z M3727.724,648.438
		c14.012,0,24.688-4.67,32.028-13.345c7.339-8.674,11.343-20.018,11.343-33.362c0-14.68-3.336-26.023-10.676-34.03
		s-18.016-12.011-32.028-12.011h-43.371v92.748H3727.724z"/>
</g>
<g>
	<path class="st8" d="M1729.328,358.177v392.351h-100.891V606.479h-88.559v144.049h-100.891V358.177h100.891v145.73h88.559v-145.73
		H1729.328z"/>
	<path class="st8" d="M2099.815,358.177l-1.121,235.971c0,25.783-3.363,48.764-10.089,68.941
		c-6.727,20.179-16.255,37.554-29.146,51.566s-28.585,24.662-47.082,32.509c-18.496,7.287-39.795,11.21-63.896,11.21
		s-45.401-3.923-63.897-11.21c-18.496-7.847-34.19-19.057-47.082-33.069s-22.42-31.388-29.146-52.127
		c-6.726-20.738-10.089-43.719-10.089-68.941v-234.85h100.891v237.092c0,45.4,16.814,67.82,49.885,67.82
		c33.069,0,49.884-22.42,49.884-67.82V358.177H2099.815z"/>
	<path class="st8" d="M2465.816,358.177l-0.561,393.472h-87.438l-58.854-103.692c-6.165-10.65-12.331-21.86-19.057-33.07
		s-12.892-21.859-18.496-31.388c-5.605-9.528-10.09-17.376-14.013-23.541l-5.605-9.528h-1.121l1.121,10.089
		c0.561,6.726,1.121,16.814,1.682,29.706s1.121,28.025,1.682,45.962c0.561,17.936,1.121,37.553,1.121,59.413v56.05h-99.209V359.858
		h87.438l65.578,114.903c5.045,8.408,10.649,17.375,16.255,26.904c5.605,9.528,11.21,18.496,16.255,26.904
		c5.044,8.407,8.968,15.693,12.331,21.299l5.044,8.407h1.121l-0.561-10.649c-0.561-6.726-1.121-16.255-1.682-28.586
		c-0.561-12.331-1.121-26.904-1.682-44.279s-0.561-36.433-0.561-57.171v-59.413H2465.816z"/>
	<path class="st8" d="M2655.259,358.177l1.121,1.121c29.146,0,55.489,4.484,79.03,13.452c23.541,8.968,43.72,21.86,60.534,38.675
		c16.815,16.815,29.707,37.553,38.675,62.215s13.452,52.127,13.452,82.954c0,29.707-4.484,56.61-13.452,80.712
		s-21.299,44.28-37.554,61.095c-16.254,16.815-35.872,29.707-59.413,38.675s-49.885,13.452-79.591,13.452h-120.508V358.177H2655.259
		z M2670.393,654.121c49.885,0,74.547-32.509,74.547-98.088c0-35.312-7.287-61.094-21.86-77.349
		c-14.572-16.255-33.069-24.662-56.05-24.662h-28.585v200.099H2670.393z"/>
	<path class="st8" d="M3145.129,653.561v96.967H2900.19V358.177h241.576v96.966h-140.686v52.688h104.813v91.362h-104.813v54.368
		H3145.129z"/>
	<path class="st8" d="M3390.627,750.527l-54.368-123.871h-22.42v123.871h-100.891v-391.79h137.883
		c19.618,0,38.114,3.363,54.93,10.089c16.814,6.726,31.388,15.694,43.719,27.464s22.42,25.783,29.707,42.598
		c7.286,16.815,10.649,35.312,10.649,56.05c0,25.783-5.605,48.203-16.815,66.7c-11.21,18.496-25.783,33.069-43.719,43.719
		l74.547,145.17H3390.627z M3313.839,535.295h39.795c10.649,0,19.058-3.924,24.662-12.331c5.605-8.407,8.407-17.936,8.407-28.585
		s-2.802-20.178-8.407-28.585c-5.604-8.408-13.452-12.331-24.102-12.331h-40.355V535.295z"/>
</g>
<g>
	<path class="st8" d="M4189.617,653.561v96.967h-244.938V358.177h100.891v295.384H4189.617z"/>
	<path class="st8" d="M4433.433,699.521h-113.222l-12.331,51.006h-104.813l114.342-392.351h118.826l114.343,392.351h-104.813
		L4433.433,699.521z M4410.451,605.918l-19.617-84.636c-4.484-20.178-8.407-35.872-10.089-47.082s-2.803-16.815-3.363-16.815h-1.121
		c-0.561,0-1.682,5.605-3.923,16.815c-2.242,11.21-5.605,26.904-10.649,47.082l-20.179,84.636H4410.451z"/>
	<path class="st8" d="M4853.803,454.022l-122.75,159.742c-8.968,11.21-16.255,21.86-22.98,29.707
		c-6.727,7.847-10.089,11.771-10.089,12.331l1.121,0.561c0.561,0,6.726-0.561,18.496-1.121s27.465-1.121,47.082-1.121h89.12v96.406
		h-273.524v-95.285l129.476-163.667c3.363-4.484,6.726-8.968,10.649-13.452c3.924-4.484,7.286-8.408,10.649-11.771
		c3.363-3.363,6.165-6.166,8.407-8.408l3.363-3.363l-1.121-0.561h-5.604c-3.924,0-8.969,0-15.134,0.561
		c-6.166,0.56-12.892,0.56-20.738,0.56c-7.848,0-15.694,0-24.102,0h-90.241v-96.966h267.92V454.022z"/>
	<path class="st8" d="M5163.197,653.561v96.967h-244.939V358.177h241.576v96.966h-140.686v52.688h104.813v91.362h-104.813v54.368
		H5163.197z"/>
</g>
</svg>
