<svg id="Layer_7" data-name="Layer 7" xmlns="http://www.w3.org/2000/svg" xmlns:xlink="http://www.w3.org/1999/xlink" width="501.62" height="500.57" viewBox="0 0 501.62 500.57"><defs><style>.cls-1,.cls-2{fill:#fff;}.cls-1{stroke:#fff;stroke-miterlimit:10;}</style></defs><image width="512" height="512" transform="matrix(0.98, 0, 0, -0.98, 0.5, 500.57)" xlink:href="C:%5CUsers%5Cdarkt%5CDownloads%5C318255.png"/><path class="cls-1" d="M162.91,383l-10.12,9.64s-4.67,9.81,0,17.52S176.09,436,176.09,436l43.39,43.55c.93.91,8,7.67,18.16,6.43A21.82,21.82,0,0,0,256,469.79c2.37-9.6-3-17.22-3.85-18.33l-28.61-28,58.34-.32,66.53-.48s26.2-.16,59.63-14.31,59.46-45.32,59.46-45.32a167.94,167.94,0,0,0,34.24-67.5,164.87,164.87,0,0,0,4.59-42.91s.55-37-18.25-69.11c-6.11-10.44-24.27-33.75-24.27-33.75-.67-.93-7.45-10.09-18.32-9.8-6.91.18-11.66,4.08-13.34,5.46-5.81,4.76-7.92,9.23-8.15,13.17-.38,6.33,3.61,11.26,6.7,15.12,8.18,10.21,22,27.43,28.29,45.64a109.44,109.44,0,0,1,4.82,22.18,123.21,123.21,0,0,1,.8,20.41,120.07,120.07,0,0,1-4.23,27.76c-1.42,5.17-14.12,48.69-55.55,73.33-17.66,10.5-32.42,12.75-58.5,16.72,0,0-31.7,4.82-121.5-.65l27.64-27.64s7.39-10.29-.16-23.46-22.18-9.49-22.18-9.49-6.59,2.41-8,4S162.91,383,162.91,383Z" transform="translate(-5.21 -5.71)"/><path class="cls-1" d="M349.14,129.3l10.12-9.64s4.66-9.8,0-17.52S336,76.27,336,76.27L292.57,32.72c-.93-.92-8-7.68-18.16-6.43a21.81,21.81,0,0,0-18.33,16.23c-2.36,9.59,3.05,17.21,3.86,18.32l28.61,28-58.34.33-66.54.48s-26.19.16-59.62,14.3-59.47,45.32-59.47,45.32a168.15,168.15,0,0,0-34.23,67.5,164.91,164.91,0,0,0-4.59,42.91s-.55,37,18.25,69.11c6.11,10.44,24.27,33.75,24.27,33.75.67.93,7.45,10.1,18.32,9.81,6.91-.19,11.66-4.09,13.34-5.47,5.81-4.75,7.92-9.23,8.15-13.16.37-6.33-3.61-11.27-6.7-15.13-8.18-10.21-22-27.42-28.29-45.64a109.44,109.44,0,0,1-4.82-22.18,123.17,123.17,0,0,1-.8-20.41,120,120,0,0,1,4.23-27.75c1.42-5.18,14.12-48.69,55.55-73.34,17.66-10.5,32.42-12.74,58.5-16.71,0,0,31.7-4.82,121.5.64L259.62,160.8s-7.39,10.29.16,23.47S282,193.75,282,193.75s6.59-2.41,8-4S349.14,129.3,349.14,129.3Z" transform="translate(-5.21 -5.71)"/><path class="cls-2" d="M98.31,95.31a35.92,35.92,0,0,1,7-2.43A20.53,20.53,0,0,1,111.62,91l-73-73a14.57,14.57,0,0,0-20.6,20.6l65.51,65.51c.53-.31,1.07-.6,1.62-.86A22.11,22.11,0,0,1,89,100.75a22,22,0,0,1,5.25-3.18A40.28,40.28,0,0,1,98.31,95.31Z" transform="translate(-5.21 -5.71)"/><path class="cls-2" d="M375.05,367.49c1.65-.46,3.32-.91,5-1.34a21.23,21.23,0,0,1,5.08-1.64L162.93,142.32c-3.65.66-7.34,1.09-11,1.54-1.56.2-5.4.9-1.73.2-1.77.34-3.55.63-5.3,1.1s-3.34,1.05-5,1.65l-.39.14c-.26.13-.64.3-1.15.53-2.65,1.19-5.32,2.36-8,3.45L350.44,371.05a18.61,18.61,0,0,1,3.73-.41,19.06,19.06,0,0,1,4.06-.45l.42,0a18.61,18.61,0,0,1,3.49-.35h.05c.53-.12,1.07-.22,1.62-.31a21.23,21.23,0,0,1,2.37-.5,19.18,19.18,0,0,1,4.87-.77A20.11,20.11,0,0,1,375.05,367.49Z" transform="translate(-5.21 -5.71)"/><path class="cls-2" d="M494,473.35l-66.81-66.82a69.62,69.62,0,0,1-9.57,5.38c-2.45,1.12-5,2.11-7.46,3.15-.14.07-.79.34-1.39.59l-2.93,1.25c-1.12.49-2.24,1-3.35,1.47l-3.22,1.46L473.35,494a14.57,14.57,0,0,0,20.6-20.6Z" transform="translate(-5.21 -5.71)"/></svg>