<svg id="Layer_4" data-name="Layer 4" xmlns="http://www.w3.org/2000/svg" xmlns:xlink="http://www.w3.org/1999/xlink" width="497.65" height="496.61" viewBox="0 0 497.65 496.61"><defs><style>.cls-1{fill:#fff;stroke:#fff;stroke-miterlimit:10;}</style></defs><image width="512" height="512" transform="translate(0.5 0) scale(0.97)" xlink:href="C:%5CUsers%5Cdarkt%5CDownloads%5Cforward-button.png"/><path class="cls-1" d="M7.7,81.43v351C7.92,434.28,10.24,451,24.86,459c11.61,6.34,23.49,3.05,27.16,2a41.58,41.58,0,0,0,16.07-8.68L217.55,331.18q.24,50.7.49,101.41a32.25,32.25,0,0,0,19,29c16.3,7.23,31.05-2.95,31.71-3.43l219-174.43a63.73,63.73,0,0,0,5.47-5.41c4.63-5.14,8.82-9.8,10.44-16.87a24.43,24.43,0,0,0,0-11.73c-.48-1.91-1.56-5.08-6.58-11.41a89.85,89.85,0,0,0-13.5-13.67L271.22,55.56c-1.3-.88-16.51-10.74-32.51-4.13-10.2,4.21-15.38,12.91-16.66,15.21a35.51,35.51,0,0,0-4,11.74q.32,51.83.64,103.66L61.29,56.14A32.84,32.84,0,0,0,7.7,81.43Z" transform="translate(-7.2 -7.7)"/></svg>