<svg id="Layer_6" data-name="Layer 6" xmlns="http://www.w3.org/2000/svg" width="388.81" height="335.22" viewBox="0 0 388.81 335.22"><defs><style>.cls-1{fill:#fff;stroke:#fff;stroke-miterlimit:10;}</style></defs><path class="cls-1" d="M66.8,147a22.46,22.46,0,0,1,11.74-8l54.32-.32a104.53,104.53,0,0,1,26,6.59,73.83,73.83,0,0,1,15.43,7.88c3.55,2.41,1.85,1.74,11.41,9.32,5,4,7.56,5.79,10.13,9.64a24.3,24.3,0,0,1,3.21,6.43A21.73,21.73,0,0,1,185.57,206a23.22,23.22,0,0,1-16.23-.8c-3.23-1.49-4-3.19-9-7.23a133.61,133.61,0,0,0-13.66-10.45c-6.62-4.33-13.11-4.71-28-5.14-15.79-.47-29.21-.62-39.69-.65a22.06,22.06,0,0,1-3.8-1.58c-1.55-.82-10.12-5.34-12.27-15.45A22.86,22.86,0,0,1,66.8,147Z" transform="translate(-61.74 -88.32)"/><path class="cls-1" d="M73.68,332.23a17.91,17.91,0,0,1,5.8-1.85c26.19-.34,45.17-.62,49.76-.57a22.93,22.93,0,0,0,6.27-.74,23.28,23.28,0,0,0,5.3-2.15c8.51-4.5,12.78-6.77,13.9-7.63,2.46-1.9,4.41-4.11,8.2-8.44,4.51-5.16,8.16-9.87,9.8-12.14,11.27-15.49,45-76.12,73.45-114.59a130.24,130.24,0,0,1,15.59-17.67c7.18-6.78,18.48-17.24,36.16-23.47a88.69,88.69,0,0,1,29.89-5l41.71.24,4.42-.24c-1.81-2.13-3.49-4-5-5.62-3.79-4.11-5.4-5.51-7.8-8.52a60.77,60.77,0,0,1-4.26-6.11c-.29-1-3.05-11.52,4-20.41.3-.37,7.07-8.54,17.52-8.52a23,23,0,0,1,16.39,7.23l50.71,50.23a26,26,0,0,1,3,7.15,25.06,25.06,0,0,1,.16,11.57,23.44,23.44,0,0,1-4.5,9.16l-52.07,53.2a23.75,23.75,0,0,1-13.34,4c-1.15,0-11.23-.34-17.52-8.52-5.41-7.05-5.89-17.15-1.2-25.56l15.18-15.59h-8c-42.4,0-45.33.36-47.73.81-8.85,1.64-22.55,7-37.29,26.52-33.19,51.84-58.45,90.8-70.87,110.73a125.88,125.88,0,0,1-20.9,25.87,125.8,125.8,0,0,1-24.1,17.52c-14.65,8.25-23.4,9.36-26.2,9.64a52.35,52.35,0,0,1-8.68.16l-52.23.49a14.89,14.89,0,0,1-2.73-.65c-8.65-2.9-15.58-14.05-14-24.48A23.3,23.3,0,0,1,67.93,337,18.84,18.84,0,0,1,73.68,332.23Z" transform="translate(-61.74 -88.32)"/><path class="cls-1" d="M273,303.86c6.13-.25,10.65,2.67,14,4.82,5.13,3.31,7.1,6.49,10,9.48,4,4.2,10.84,9.08,23,11.57l54.4-.79-9-8.85a22.93,22.93,0,0,1-8.6-22.82c2.34-10.69,11.9-15.08,12.7-15.43,11.51-5,21.88,2.24,22.34,2.57L444,336.8a20,20,0,0,1,4.34,6.11c3.71,8.21.38,16.25-.48,18.16a23.52,23.52,0,0,1-4.18,6.27l-50.63,49.82a20.95,20.95,0,0,1-28.6.48,21.83,21.83,0,0,1-5.95-8.84,24.16,24.16,0,0,1,.8-17.51l15.53-17L319.71,374a99,99,0,0,1-36.32-11.58,102.23,102.23,0,0,1-24.53-20.25,28.32,28.32,0,0,1-4.34-6.51,22.54,22.54,0,0,1-2.63-10.31c.13-7.19,4.6-12.15,6-13.71S264.64,304.19,273,303.86Z" transform="translate(-61.74 -88.32)"/></svg>