<?xml version="1.0" encoding="utf-8"?>
<!-- Generator: Adobe Illustrator 25.4.1, SVG Export Plug-In . SVG Version: 6.00 Build 0)  -->
<svg version="1.1" id="Layer_7" xmlns="http://www.w3.org/2000/svg" xmlns:xlink="http://www.w3.org/1999/xlink" x="0px" y="0px"
	 viewBox="0 0 501.6 500.6" style="enable-background:new 0 0 501.6 500.6;" xml:space="preserve">
<style type="text/css">
	.st0{fill:#FFFFFF;stroke:#FFFFFF;stroke-miterlimit:10;}
	.st1{fill:#FFFFFF;}
</style>
<path class="st0" d="M157.7,377.3l-10.1,9.6c0,0-4.7,9.8,0,17.5s23.3,25.8,23.3,25.8l43.4,43.5c0.9,0.9,8,7.7,18.2,6.4
	c8.9-1.1,16.1-7.5,18.4-16.2c2.4-9.6-3-17.2-3.9-18.3l-28.6-28l58.3-0.3l66.5-0.5c0,0,26.2-0.2,59.6-14.3s59.5-45.3,59.5-45.3
	c16.4-19.6,28.1-42.7,34.2-67.5c3.4-14,4.9-28.5,4.6-42.9c0,0,0.5-37-18.2-69.1c-6.1-10.4-24.3-33.8-24.3-33.8
	c-0.7-0.9-7.5-10.1-18.3-9.8c-6.9,0.2-11.7,4.1-13.3,5.5c-5.8,4.8-7.9,9.2-8.1,13.2c-0.4,6.3,3.6,11.3,6.7,15.1
	c8.2,10.2,22,27.4,28.3,45.6c2.4,7.2,4,14.6,4.8,22.2c0.8,6.8,1.1,13.6,0.8,20.4c-0.3,9.4-1.7,18.7-4.2,27.8
	c-1.4,5.2-14.1,48.7-55.5,73.3c-17.7,10.5-32.4,12.8-58.5,16.7c0,0-31.7,4.8-121.5-0.6l27.6-27.6c0,0,7.4-10.3-0.2-23.5
	s-22.2-9.5-22.2-9.5s-6.6,2.4-8,4S157.7,377.3,157.7,377.3z"/>
<path class="st0" d="M343.9,123.6l10.1-9.6c0,0,4.7-9.8,0-17.5s-23.3-25.9-23.3-25.9L287.4,27c-0.9-0.9-8-7.7-18.2-6.4
	c-8.9,1.1-16.1,7.6-18.3,16.2c-2.4,9.6,3,17.2,3.9,18.3l28.6,28L225,83.5l-66.5,0.5c0,0-26.2,0.2-59.6,14.3s-59.5,45.3-59.5,45.3
	C23,163.2,11.3,186.3,5.1,211.1c-3.4,14-4.9,28.5-4.6,42.9c0,0-0.6,37,18.2,69.1c6.1,10.4,24.3,33.8,24.3,33.8
	c0.7,0.9,7.5,10.1,18.3,9.8c6.9-0.2,11.7-4.1,13.3-5.5c5.8-4.8,7.9-9.2,8.2-13.2c0.4-6.3-3.6-11.3-6.7-15.1
	c-8.2-10.2-22-27.4-28.3-45.6c-2.4-7.2-4-14.6-4.8-22.2c-0.8-6.8-1.1-13.6-0.8-20.4c0.3-9.4,1.7-18.7,4.2-27.8
	c1.4-5.2,14.1-48.7,55.6-73.3c17.7-10.5,32.4-12.7,58.5-16.7c0,0,31.7-4.8,121.5,0.6l-27.6,27.6c0,0-7.4,10.3,0.2,23.5
	c7.6,13.2,22.2,9.5,22.2,9.5s6.6-2.4,8-4S343.9,123.6,343.9,123.6z"/>
<path class="st1" d="M93.1,89.6c2.2-1,4.6-1.9,7-2.4c2-1,4.1-1.6,6.3-1.9l-73-73c-5.8-5.6-15-5.4-20.6,0.5c-5.4,5.6-5.4,14.5,0,20.1
	l65.5,65.5c0.5-0.3,1.1-0.6,1.6-0.9c1.2-1,2.5-1.8,3.8-2.5c1.6-1.3,3.4-2.4,5.2-3.2C90.3,91,91.7,90.3,93.1,89.6z"/>
<path class="st1" d="M369.8,361.8c1.6-0.5,3.3-0.9,5-1.3c1.6-0.8,3.3-1.3,5.1-1.6L157.7,136.6c-3.6,0.7-7.3,1.1-11,1.5
	c-1.6,0.2-5.4,0.9-1.7,0.2c-1.8,0.3-3.6,0.6-5.3,1.1s-3.3,1.1-5,1.6l-0.4,0.1c-0.3,0.1-0.6,0.3-1.1,0.5c-2.6,1.2-5.3,2.4-8,3.4
	l220.1,220.1c1.2-0.3,2.5-0.4,3.7-0.4c1.3-0.3,2.7-0.4,4.1-0.5h0.4c1.1-0.2,2.3-0.3,3.5-0.4h0c0.5-0.1,1.1-0.2,1.6-0.3
	c0.8-0.2,1.6-0.4,2.4-0.5c1.6-0.5,3.2-0.7,4.9-0.8C367.1,362.2,368.5,361.9,369.8,361.8z"/>
<path class="st1" d="M488.8,467.6L422,400.8c-3,2-6.2,3.8-9.6,5.4c-2.5,1.1-5,2.1-7.5,3.1c-0.1,0.1-0.8,0.3-1.4,0.6l-2.9,1.2
	c-1.1,0.5-2.2,1-3.4,1.5l-3.2,1.5l74.1,74.2c5.8,5.6,15,5.4,20.6-0.5C494.1,482.2,494.1,473.3,488.8,467.6L488.8,467.6z"/>
</svg>
