<svg id="Layer_1" data-name="Layer 1" xmlns="http://www.w3.org/2000/svg" width="503.08" height="503.08" viewBox="0 0 503.08 503.08"><defs><style>.cls-1{fill:none;stroke:#fff;stroke-miterlimit:10;stroke-width:13px;}.cls-2{fill:#fff;}</style></defs><circle class="cls-1" cx="251.54" cy="251.54" r="245.04"/><path class="cls-2" d="M178.19,160c1.12-2.82,7-16.7,22.27-23.09,2-.85,12.47-5,24.28-2.22A63.62,63.62,0,0,1,236.42,139,97.79,97.79,0,0,1,249,145.9c52.73,31.53,92.94,55.4,118.33,68.53,7.23,3.73,24.87,12.6,29.41,29.41,2.18,8.07.87,16.23.14,19.69A45.67,45.67,0,0,1,385,286c-2.31,2.3-8.18,6-19.84,13.18-4.61,2.85-8.45,5.19-11.1,6.79l-27.6,15.26a92.8,92.8,0,0,0-20.54-31.9C296,279.34,286,274,276.48,269.08c-15-7.82-19.86-7.38-35.92-14.84-12.2-5.66-24.72-13-31.63-18.45C183.72,216,179,179.36,178.19,160Z" transform="translate(-4.46 -3.63)"/><path class="cls-2" d="M175.91,219.42l-1.08,74.19A32.88,32.88,0,0,0,192,312.78c11.93,5.91,20.82,7,32.74,10.82,12.12,3.94,20.83,6.77,28.16,14.57A43.41,43.41,0,0,1,263,357l49.11-28.3c-8.4-20-19.8-30.35-26.92-35.51-9.24-6.7-20.42-11.33-28.57-14.7-9.46-3.92-14.67-5.19-27-10.85a152.26,152.26,0,0,1-16.47-8.42c-6.08-3.67-14-8.42-21.91-16.8A83.2,83.2,0,0,1,175.91,219.42Z" transform="translate(-4.46 -3.63)"/><path class="cls-2" d="M175.49,322.21q-.41,5-.83,10a47.89,47.89,0,0,0,1.16,12.5,46.46,46.46,0,0,0,6.75,15.75,42.61,42.61,0,0,0,10.54,10.73c10.77,7.4,22.35,7,26.08,6.8,16-.79,26.59-10,29.69-12.9a27.35,27.35,0,0,0-1.53-5c-3.91-9.49-12.09-14.21-16.89-17a53.53,53.53,0,0,0-19.59-6.61,92.84,92.84,0,0,1-24-7.77A91.48,91.48,0,0,1,175.49,322.21Z" transform="translate(-4.46 -3.63)"/></svg>