<?xml version="1.0" encoding="utf-8"?>
<!-- Generator: Adobe Illustrator 25.4.1, SVG Export Plug-In . SVG Version: 6.00 Build 0)  -->
<svg version="1.1" id="Layer_4" xmlns="http://www.w3.org/2000/svg" xmlns:xlink="http://www.w3.org/1999/xlink" x="0px" y="0px"
	 viewBox="0 0 497.6 496.6" style="enable-background:new 0 0 497.6 496.6;" xml:space="preserve">
<style type="text/css">
	.st0{fill:#FFFFFF;stroke:#FFFFFF;stroke-miterlimit:10;}
</style>
<path class="st0" d="M0.5,73.7v351c0.2,1.9,2.5,18.6,17.2,26.6c11.6,6.3,23.5,3,27.2,2c5.9-1.7,11.4-4.6,16.1-8.7l149.5-121.1
	c0.2,33.8,0.3,67.6,0.5,101.4c0.2,12.5,7.6,23.8,19,29c16.3,7.2,31-3,31.7-3.4l219-174.4c1.9-1.7,3.8-3.5,5.5-5.4
	c4.6-5.1,8.8-9.8,10.4-16.9c1-3.9,1-7.9,0-11.7c-0.5-1.9-1.6-5.1-6.6-11.4c-4-5-8.5-9.6-13.5-13.7L264,47.9
	c-1.3-0.9-16.5-10.7-32.5-4.1c-10.2,4.2-15.4,12.9-16.7,15.2c-2,3.6-3.4,7.6-4,11.7c0.2,34.6,0.4,69.1,0.6,103.7L54.1,48.4
	C40,37,19.3,39.1,7.9,53.1C3.1,59,0.5,66.2,0.5,73.7z"/>
</svg>
