<svg id="Layer_2" data-name="Layer 2" xmlns="http://www.w3.org/2000/svg" width="503.08" height="503.08" viewBox="0 0 503.08 503.08"><defs><style>.cls-1{fill:none;stroke-width:13px;}.cls-1,.cls-2{stroke:#fff;stroke-miterlimit:10;}.cls-2{fill:#fff;}</style></defs><circle class="cls-1" cx="251.54" cy="251.54" r="245.04"/><path class="cls-2" d="M290.9,179.23c.4,111.26.57,144.9.63,150.54,0,.15,0,.51,0,1a44.87,44.87,0,0,0,5.51,20.15c5.35,9,19.13,17.72,34.38,15,17.29-3.13,24.88-19,26.24-23.26A66,66,0,0,0,360,329.9c.08-1,.11-1.82.13-2.39q-.47-75.15-.95-150.3c-.1-1-.26-2.37-.52-4a64.62,64.62,0,0,0-2.24-9c-.75-2.24-2.93-8.73-6.69-13.45C341,139.87,325,140,324,140c-.74,0-17.67.59-26.15,12.84a38.26,38.26,0,0,0-4.91,11.32A51,51,0,0,0,290.9,179.23Z" transform="translate(-4.46 -3.63)"/><path class="cls-2" d="M151.87,179.23c.41,111.26.57,144.9.63,150.54,0,.15,0,.51,0,1A44.74,44.74,0,0,0,158,350.9c5.35,9,19.12,17.72,34.38,15,17.28-3.13,24.88-19,26.24-23.26A66,66,0,0,0,221,329.9c.07-1,.11-1.82.13-2.39q-.48-75.15-1-150.3c-.1-1-.26-2.37-.52-4a64.62,64.62,0,0,0-2.24-9c-.75-2.24-2.94-8.73-6.69-13.45C202,139.87,186,140,184.94,140c-.73,0-17.67.59-26.15,12.84a37.93,37.93,0,0,0-4.9,11.32A50.69,50.69,0,0,0,151.87,179.23Z" transform="translate(-4.46 -3.63)"/></svg>