<svg id="Layer_5" data-name="Layer 5" xmlns="http://www.w3.org/2000/svg" width="497.65" height="416.36" viewBox="0 0 497.65 416.36"><defs><style>.cls-1{fill:#fff;stroke:#fff;stroke-miterlimit:10;}</style></defs><path class="cls-1" d="M504.32,431.52v-351c-.22-1.86-2.54-18.6-17.16-26.58-11.61-6.33-23.49-3-27.16-2a41.44,41.44,0,0,0-16.07,8.68L294.47,181.77q-.24-50.71-.49-101.41a32.27,32.27,0,0,0-19-29c-16.3-7.22-31,3-31.71,3.43l-219,174.43a66.87,66.87,0,0,0-5.47,5.41c-4.63,5.15-8.82,9.8-10.45,16.88a24.55,24.55,0,0,0,0,11.73c.49,1.9,1.56,5.07,6.59,11.41a89.86,89.86,0,0,0,13.5,13.66L240.79,457.38c1.31.88,16.52,10.74,32.52,4.14,10.2-4.22,15.38-12.92,16.66-15.22a35.54,35.54,0,0,0,4-11.73q-.32-51.82-.64-103.66L450.73,456.8a32.83,32.83,0,0,0,53.59-25.28Z" transform="translate(-7.18 -48.29)"/></svg>